# xmcd
#
# Track frame offsets: 
#        150
#        17575
#        35626
#        55981
#        76719
#        97317
#        118823
#        139500
#        156666
#        169579
#        183009
#        195530
#        215697
#
# Disc length: 3013 seconds
#
# Revision: 2
# Processed by: cddbd v1.5.2PL0 Copyright (c) Steve Scherf et al.
# Submitted via: ExactAudioCopy v1.3
#
DISCID=b10bc30d
DTITLE=John Cowan - Always Take Me Back
DYEAR=2002
DGENRE=Country/Rock
TTITLE0=They Always Take Me Back
TTITLE1=Someone Give Me a Stone
TTITLE2=Sittin' On Top of The World
TTITLE3=Long Distance Runaround
TTITLE4=Blood
TTITLE5=18 Years
TTITLE6=Read On
TTITLE7=In My Father's Field
TTITLE8=Two Quarts Low
TTITLE9=Call Me
TTITLE10=Monroe's Mule
TTITLE11=Love Alone
TTITLE12=Mr. Banjo
EXTD=
EXTT0=
EXTT1=
EXTT2=
EXTT3=
EXTT4=
EXTT5=
EXTT6=
EXTT7=
EXTT8=
EXTT9=
EXTT10=
EXTT11=
EXTT12=
PLAYORDER=
